<?xml version="1.0" standalone="no"?>
<!DOCTYPE svg PUBLIC "-//W3C//DTD SVG 20010904//EN"
 "http://www.w3.org/TR/2001/REC-SVG-20010904/DTD/svg10.dtd">
<svg version="1.0" xmlns="http://www.w3.org/2000/svg"
 width="314.000000pt" height="326.000000pt" viewBox="0 0 314.000000 326.000000"
 preserveAspectRatio="xMidYMid meet">

<g transform="translate(0.000000,326.000000) scale(0.100000,-0.100000)"
fill="#000000" stroke="none">
<path d="M705 3251 c-315 -32 -581 -268 -667 -591 l-23 -85 0 -950 0 -950 23
-80 c67 -235 210 -409 417 -510 159 -78 110 -75 1116 -75 859 0 899 1 973 20
298 76 525 336 576 660 13 88 13 1792 0 1880 -51 321 -264 569 -570 661 l-75
23 -850 2 c-467 1 -881 -2 -920 -5z m320 -50 l-380 -6 -115 -56 c-209 -102
-311 -201 -406 -394 -58 -119 -69 -118 -28 3 35 105 85 184 169 267 102 100
211 159 340 185 22 4 211 7 420 7 l380 -1 -380 -5z m498 2 c-7 -2 -21 -2 -30
0 -10 3 -4 5 12 5 17 0 24 -2 18 -5z m94 1 c-3 -3 -12 -4 -19 -1 -8 3 -5 6 6
6 11 1 17 -2 13 -5z m928 -30 c28 -13 39 -21 25 -17 -38 9 -107 42 -90 42 8 0
38 -11 65 -25z m430 -368 c36 -60 75 -139 88 -175 l22 -66 3 -902 c3 -993 4
-979 -58 -1112 -29 -62 -127 -221 -137 -221 -2 0 18 42 46 93 27 50 62 133 78
182 l28 90 3 855 c2 608 0 878 -8 935 -21 141 -86 318 -167 449 l-25 41 31
-30 c17 -16 60 -79 96 -139z m-1384 -160 c143 -58 271 -213 268 -325 0 -17 -8
-4 -24 42 -43 124 -99 190 -205 241 l-35 17 30 -22 c68 -51 133 -130 178 -219
46 -89 63 -156 33 -131 -11 9 -14 -1 -19 -57 -7 -82 -35 -158 -87 -231 -22
-30 -37 -57 -35 -60 11 -11 77 67 110 131 20 37 38 68 40 68 7 0 -25 -82 -45
-115 -24 -38 -130 -129 -182 -156 -60 -31 -166 -52 -223 -44 -120 16 -252 113
-307 227 -39 79 -51 146 -46 258 3 85 8 105 36 163 55 110 142 187 257 223 68
22 192 17 256 -10z m14 -977 c166 -27 341 -115 444 -223 32 -33 40 -53 9 -23
-26 27 -144 110 -183 129 -49 25 -39 15 45 -44 80 -56 192 -172 250 -257 88
-131 166 -327 185 -464 6 -48 -9 -69 -18 -24 -3 12 -4 6 -4 -13 2 -24 7 -35
17 -35 12 0 14 13 12 69 -7 153 -86 368 -187 513 -49 70 -59 95 -19 48 45 -54
115 -165 146 -233 59 -129 106 -374 78 -407 -11 -13 -124 -15 -924 -15 -585 0
-916 4 -922 10 -6 6 -7 44 -2 100 30 385 286 725 634 841 136 46 272 55 439
28z"/>
</g>
</svg>
